<svg id="et67jvafjps1" xmlns="http://www.w3.org/2000/svg" xmlns:xlink="http://www.w3.org/1999/xlink" viewBox="0 0 3551 3436" shape-rendering="geometricPrecision" text-rendering="geometricPrecision"><style><![CDATA[#et67jvafjps3_tr {animation: et67jvafjps3_tr__tr 1000ms linear infinite normal forwards}@keyframes et67jvafjps3_tr__tr { 0% {transform: translate(719.310547px,703.130859px) rotate(0deg)} 4% {transform: translate(719.310547px,703.130859px) rotate(0deg)} 19% {transform: translate(719.310547px,703.130859px) rotate(1deg)} 34% {transform: translate(719.310547px,703.130859px) rotate(0deg)} 49% {transform: translate(719.310547px,703.130859px) rotate(1deg)} 64% {transform: translate(719.310547px,703.130859px) rotate(0deg)} 79% {transform: translate(719.310547px,703.130859px) rotate(2deg)} 94% {transform: translate(719.310547px,703.130859px) rotate(0deg)} 100% {transform: translate(719.310547px,703.130859px) rotate(0deg)} }#et67jvafjps4_tr {animation: et67jvafjps4_tr__tr 1000ms linear infinite normal forwards}@keyframes et67jvafjps4_tr__tr { 0% {transform: translate(2313.894531px,541.556641px) rotate(0deg)} 4% {transform: translate(2313.894531px,541.556641px) rotate(0deg)} 19% {transform: translate(2313.894531px,541.556641px) rotate(2deg)} 34% {transform: translate(2313.894531px,541.556641px) rotate(0deg)} 49% {transform: translate(2313.894531px,541.556641px) rotate(1deg)} 64% {transform: translate(2313.894531px,541.556641px) rotate(0deg)} 79% {transform: translate(2313.894531px,541.556641px) rotate(1deg)} 94% {transform: translate(2313.894531px,541.556641px) rotate(0deg)} 100% {transform: translate(2313.894531px,541.556641px) rotate(0deg)} }#et67jvafjps5_tr {animation: et67jvafjps5_tr__tr 1000ms linear infinite normal forwards}@keyframes et67jvafjps5_tr__tr { 0% {transform: translate(2879.490234px,1889.773438px) rotate(1deg)} 4% {transform: translate(2879.490234px,1889.773438px) rotate(1deg)} 19% {transform: translate(2879.490234px,1889.773438px) rotate(0deg)} 34% {transform: translate(2879.490234px,1889.773438px) rotate(2deg)} 49% {transform: translate(2879.490234px,1889.773438px) rotate(0deg)} 64% {transform: translate(2879.490234px,1889.773438px) rotate(1deg)} 79% {transform: translate(2879.490234px,1889.773438px) rotate(0deg)} 94% {transform: translate(2879.490234px,1889.773438px) rotate(1deg)} 100% {transform: translate(2879.490234px,1889.773438px) rotate(1deg)} }#et67jvafjps6_tr {animation: et67jvafjps6_tr__tr 1000ms linear infinite normal forwards}@keyframes et67jvafjps6_tr__tr { 0% {transform: translate(1927.777344px,2887.810547px) rotate(0deg)} 4% {transform: translate(1927.777344px,2887.810547px) rotate(0deg)} 19% {transform: translate(1927.777344px,2887.810547px) rotate(1deg)} 34% {transform: translate(1927.777344px,2887.810547px) rotate(0deg)} 49% {transform: translate(1927.777344px,2887.810547px) rotate(2deg)} 64% {transform: translate(1927.777344px,2887.810547px) rotate(0deg)} 79% {transform: translate(1927.777344px,2887.810547px) rotate(1deg)} 94% {transform: translate(1927.777344px,2887.810547px) rotate(0deg)} 100% {transform: translate(1927.777344px,2887.810547px) rotate(0deg)} }#et67jvafjps7_tr {animation: et67jvafjps7_tr__tr 1000ms linear infinite normal forwards}@keyframes et67jvafjps7_tr__tr { 0% {transform: translate(489.884766px,2278.580078px) rotate(1deg)} 4% {transform: translate(489.884766px,2278.580078px) rotate(1deg)} 19% {transform: translate(489.884766px,2278.580078px) rotate(0deg)} 34% {transform: translate(489.884766px,2278.580078px) rotate(1deg)} 49% {transform: translate(489.884766px,2278.580078px) rotate(0deg)} 64% {transform: translate(489.884766px,2278.580078px) rotate(2deg)} 79% {transform: translate(489.884766px,2278.580078px) rotate(0deg)} 94% {transform: translate(489.884766px,2278.580078px) rotate(1deg)} 100% {transform: translate(489.884766px,2278.580078px) rotate(1deg)} }]]></style><g id="et67jvafjps2" clip-rule="evenodd"><g id="et67jvafjps3_tr" transform="translate(719.310547,703.130859) rotate(0)"><path id="et67jvafjps3" d="M1403.670000,27.794000L607.437000,535.530000L34.949000,1353.425000L473.287000,1378.467000L1302.804000,545.667000L1403.670000,27.794000Z" transform="translate(-719.310547,-703.130859)" clip-rule="evenodd" fill="rgb(35,41,102)" fill-rule="evenodd" stroke="none" stroke-width="1" stroke-linejoin="round" stroke-miterlimit="2"/></g><g id="et67jvafjps4_tr" transform="translate(2313.894531,541.556641) rotate(0)"><path id="et67jvafjps4" d="M1469.843072,0L2682.999668,250.355058L3251.608647,875.571589L2392.518782,1066.607539L1363.616000,535.331394L1469.842079,0Z" transform="translate(-2313.894531,-541.556641)" clip-rule="evenodd" fill="rgb(35,41,102)" fill-rule="evenodd" stroke="none" stroke-width="1" stroke-linejoin="round" stroke-miterlimit="2"/></g><g id="et67jvafjps5_tr" transform="translate(2879.490234,1889.773438) rotate(1)"><path id="et67jvafjps5" d="M2426.760000,1132.520000L3291.474000,912.856000L3550.041000,1895.618000L2898.583000,2866.692000L2208.940000,2301.843000L2426.760000,1132.523000Z" transform="translate(-2879.490234,-1889.773438)" clip-rule="evenodd" fill="rgb(35,41,102)" fill-rule="evenodd" stroke="none" stroke-width="1" stroke-linejoin="round" stroke-miterlimit="2"/></g><g id="et67jvafjps6_tr" transform="translate(1927.777344,2887.810547) rotate(0)"><path id="et67jvafjps6" d="M1015.970000,2540.720000L993.119000,3163.349000L2088.279000,3435.798000L2862.438000,2887.239000L2163.777000,2339.826000L1015.977000,2540.720000Z" transform="translate(-1927.777344,-2887.810547)" clip-rule="evenodd" fill="rgb(35,41,102)" fill-rule="evenodd" stroke="none" stroke-width="1" stroke-linejoin="round" stroke-miterlimit="2"/></g><g id="et67jvafjps7_tr" transform="translate(489.884766,2278.580078) rotate(1)"><path id="et67jvafjps7" d="M0,1389.970000L461.978000,1437.045000L979.769000,2548.705000L918.497000,3167.191000L267.990000,2476.509000L0,1389.969000Z" transform="translate(-489.884766,-2278.580078)" clip-rule="evenodd" fill="rgb(35,41,102)" fill-rule="evenodd" stroke="none" stroke-width="1" stroke-linejoin="round" stroke-miterlimit="2"/></g><path id="et67jvafjps8" d="M1337.680000,548.114000L497.082000,1410.269000L998.356000,2511.319000L2162.986000,2288.816000L2389.111000,1123.026000L1337.681000,548.109000ZM1742.970000,1595.494000L1742.970000,2064.119000C1742.970000,2228.985000,1609.120000,2362.835000,1444.254000,2362.835000C1301.150000,2362.835000,1181.415000,2261.989000,1152.362000,2127.539000L1251.269000,2110.659000C1272.045000,2197.932000,1350.631000,2262.821000,1444.254000,2262.821000C1553.921000,2262.821000,1642.957000,2173.786000,1642.957000,2064.119000L1642.957000,1595.494000L1742.970000,1595.494000ZM1145.538000,2027.244000L1145.538000,1589.022000L1048.731000,1589.022000C1021.131000,1589.022000,998.724000,1566.614000,998.724000,1539.015000C998.724000,1511.415000,1021.131000,1489.008000,1048.731000,1489.008000L1145.538000,1489.008000L1145.538000,1081.155000C1145.538000,916.289000,1279.388000,782.439000,1444.254000,782.439000C1577.218000,782.439000,1690.009000,869.501000,1728.632000,989.712000L1628.420000,1006.815000C1599.069000,933.907000,1527.623000,882.453000,1444.254000,882.453000C1334.587000,882.453000,1245.552000,971.489000,1245.552000,1081.155000L1245.552000,2010.175000L1145.538000,2027.244000ZM1742.970000,1495.480000L1642.957000,1495.480000L1642.957000,1105.794000L1742.970000,1088.725000L1742.970000,1495.480000Z" clip-rule="evenodd" fill="rgb(35,41,102)" fill-rule="evenodd" stroke="none" stroke-width="1" stroke-linejoin="round" stroke-miterlimit="2"/></g></svg>